<svg preserveAspectRatio="none" width="100%" height="100%" overflow="visible" style="display: block;" viewBox="0 0 15 15" fill="none" xmlns="http://www.w3.org/2000/svg">
<g id="carbon:password" clip-path="url(#clip0_0_4)">
<path id="Vector" d="M9.84375 0.9375C9.18497 0.937349 8.53531 1.09152 7.94683 1.38764C7.35836 1.68377 6.84743 2.11363 6.455 2.64277C6.06256 3.17191 5.79953 3.78562 5.68698 4.43472C5.57443 5.08382 5.61549 5.75025 5.80687 6.38063L0.9375 11.25V14.0625H3.75L8.61938 9.19312C9.19964 9.36926 9.81106 9.41823 10.412 9.33669C11.0129 9.25516 11.5891 9.04503 12.1015 8.72064C12.6138 8.39626 13.0502 7.96522 13.3809 7.45692C13.7116 6.94862 13.9289 6.375 14.0178 5.77515C14.1068 5.17531 14.0654 4.56333 13.8965 3.98093C13.7275 3.39853 13.435 2.85939 13.0388 2.40026C12.6427 1.94114 12.1522 1.57281 11.6008 1.32038C11.0495 1.06795 10.4502 0.937359 9.84375 0.9375ZM9.84375 8.4375C9.52102 8.43741 9.20006 8.38971 8.89125 8.29594L8.35359 8.13281L7.95656 8.52984L6.46547 10.0209L5.81906 9.375L5.15625 10.0378L5.80266 10.6842L5.05922 11.4277L4.41281 10.7812L3.75 11.4441L4.39641 12.0905L3.36187 13.125H1.875V11.6381L6.46969 7.04344L6.86719 6.64641L6.70406 6.10875C6.50371 5.44828 6.51673 4.74145 6.74126 4.0888C6.96579 3.43615 7.39041 2.87092 7.95471 2.47351C8.519 2.07611 9.19425 1.86676 9.88439 1.87525C10.5745 1.88374 11.2444 2.10964 11.7988 2.52081C12.3531 2.93197 12.7637 3.50748 12.9721 4.16545C13.1805 4.82343 13.1761 5.53037 12.9596 6.18571C12.7431 6.84105 12.3254 7.41143 11.766 7.8157C11.2066 8.21997 10.5339 8.43756 9.84375 8.4375Z" fill="var(--fill-0, #6C6C6C)"/>
<path id="Vector_2" d="M10.3125 5.625C10.8303 5.625 11.25 5.20527 11.25 4.6875C11.25 4.16973 10.8303 3.75 10.3125 3.75C9.79473 3.75 9.375 4.16973 9.375 4.6875C9.375 5.20527 9.79473 5.625 10.3125 5.625Z" fill="var(--fill-0, #6C6C6C)"/>
</g>
<defs>
<clipPath id="clip0_0_4">
<rect width="15" height="15" fill="white"/>
</clipPath>
</defs>
</svg>
