<svg preserveAspectRatio="none" width="100%" height="100%" overflow="visible" style="display: block;" viewBox="0 0 16 16" fill="none" xmlns="http://www.w3.org/2000/svg">
<g id="mdi:eye">
<path id="Vector" d="M8 6C7.46957 6 6.96086 6.21071 6.58579 6.58579C6.21071 6.96086 6 7.46957 6 8C6 8.53043 6.21071 9.03914 6.58579 9.41421C6.96086 9.78929 7.46957 10 8 10C8.53043 10 9.03914 9.78929 9.41421 9.41421C9.78929 9.03914 10 8.53043 10 8C10 7.46957 9.78929 6.96086 9.41421 6.58579C9.03914 6.21071 8.53043 6 8 6ZM8 11.3333C7.11594 11.3333 6.2681 10.9821 5.64298 10.357C5.01786 9.7319 4.66667 8.88406 4.66667 8C4.66667 7.11595 5.01786 6.2681 5.64298 5.64298C6.2681 5.01786 7.11594 4.66667 8 4.66667C8.88405 4.66667 9.7319 5.01786 10.357 5.64298C10.9821 6.2681 11.3333 7.11595 11.3333 8C11.3333 8.88406 10.9821 9.7319 10.357 10.357C9.7319 10.9821 8.88405 11.3333 8 11.3333ZM8 3C4.66667 3 1.82 5.07333 0.666667 8C1.82 10.9267 4.66667 13 8 13C11.3333 13 14.18 10.9267 15.3333 8C14.18 5.07333 11.3333 3 8 3Z" fill="var(--fill-0, #6C6C6C)"/>
</g>
</svg>
