<svg preserveAspectRatio="none" width="100%" height="100%" overflow="visible" style="display: block;" viewBox="0 0 18 18" fill="none" xmlns="http://www.w3.org/2000/svg">
<g id="icon_tool">
<path id="Vector" d="M5.25 7.5H7.5V5.25L4.875 2.625C5.71472 2.22396 6.65812 2.0931 7.5753 2.25047C8.49247 2.40783 9.3383 2.84566 9.99632 3.50368C10.6543 4.1617 11.0922 5.00753 11.2495 5.9247C11.4069 6.84187 11.276 7.78528 10.875 8.625L15.375 13.125C15.6734 13.4234 15.841 13.828 15.841 14.25C15.841 14.672 15.6734 15.0766 15.375 15.375C15.0766 15.6734 14.672 15.841 14.25 15.841C13.828 15.841 13.4234 15.6734 13.125 15.375L8.625 10.875C7.78528 11.276 6.84187 11.4069 5.9247 11.2495C5.00753 11.0922 4.1617 10.6543 3.50368 9.99632C2.84566 9.3383 2.40783 8.49247 2.25047 7.5753C2.0931 6.65812 2.22396 5.71472 2.625 4.875L5.25 7.5Z" stroke="var(--stroke-0, #AAA4A4)" stroke-linecap="round" stroke-linejoin="round"/>
</g>
</svg>
