<svg preserveAspectRatio="none" width="100%" height="100%" overflow="visible" style="display: block;" viewBox="0 0 16 16" fill="none" xmlns="http://www.w3.org/2000/svg">
<g id="boxicons:edit-filled">
<path id="Vector" d="M3.33333 14H12.6667C13.4 14 14 13.4 14 12.6667V7.33333H12.6667V12.6667H3.33333V3.33333H8.66667V2H3.33333C2.6 2 2 2.6 2 3.33333V12.6667C2 13.4 2.6 14 3.33333 14Z" fill="var(--fill-0, #6C6C6C)"/>
<path id="Vector_2" d="M4.66667 9.33333V10.6667C4.66667 11.0333 4.96667 11.3333 5.33333 11.3333H6.66667C6.84667 11.3333 7.01333 11.26 7.14 11.14L12.24 6.04L9.96667 3.76667L4.86667 8.86667C4.80488 8.92896 4.756 9.00284 4.72282 9.08406C4.68964 9.16529 4.67283 9.25226 4.67333 9.34L4.66667 9.33333ZM13.8067 4.47333C13.8685 4.41166 13.9175 4.3384 13.951 4.25775C13.9844 4.1771 14.0016 4.09065 14.0016 4.00333C14.0016 3.91602 13.9844 3.82957 13.951 3.74892C13.9175 3.66827 13.8685 3.59501 13.8067 3.53333L12.4733 2.2C12.4117 2.1382 12.3384 2.08917 12.2577 2.05571C12.1771 2.02226 12.0906 2.00504 12.0033 2.00504C11.916 2.00504 11.8296 2.02226 11.7489 2.05571C11.6683 2.08917 11.595 2.1382 11.5333 2.2L10.4333 3.3L12.7067 5.57333L13.8067 4.47333Z" fill="var(--fill-0, #6C6C6C)"/>
</g>
</svg>
