<svg preserveAspectRatio="none" width="100%" height="100%" overflow="visible" style="display: block;" viewBox="0 0 18 18" fill="none" xmlns="http://www.w3.org/2000/svg">
<g id="material-symbols-light:date-range">
<path id="Vector" d="M5.595 10.2413C5.48 10.1263 5.4225 9.99125 5.4225 9.83625C5.4225 9.68125 5.48 9.5465 5.595 9.432C5.71 9.3175 5.845 9.26 6 9.2595C6.155 9.259 6.29 9.3165 6.405 9.432C6.52 9.5475 6.5775 9.6825 6.5775 9.837C6.5775 9.9915 6.52 10.1263 6.405 10.2413C6.29 10.3563 6.155 10.4137 6 10.4137C5.845 10.4137 5.71 10.3563 5.595 10.2413ZM8.595 10.2413C8.48 10.1263 8.4225 9.99125 8.4225 9.83625C8.4225 9.68125 8.48 9.5465 8.595 9.432C8.71 9.3175 8.845 9.26 9 9.2595C9.155 9.259 9.29 9.3165 9.405 9.432C9.52 9.5475 9.5775 9.6825 9.5775 9.837C9.5775 9.9915 9.52 10.1263 9.405 10.2413C9.29 10.3563 9.155 10.4137 9 10.4137C8.845 10.4137 8.71 10.3563 8.595 10.2413ZM11.595 10.2413C11.48 10.1263 11.4225 9.99125 11.4225 9.83625C11.4225 9.68125 11.48 9.5465 11.595 9.432C11.71 9.3175 11.845 9.26 12 9.2595C12.155 9.259 12.29 9.3165 12.405 9.432C12.52 9.5475 12.5775 9.6825 12.5775 9.837C12.5775 9.9915 12.52 10.1263 12.405 10.2413C12.29 10.3563 12.155 10.4137 12 10.4137C11.845 10.4137 11.71 10.3563 11.595 10.2413ZM4.21275 15.75C3.86725 15.75 3.579 15.6345 3.348 15.4035C3.117 15.1725 3.001 14.8842 3 14.5387V4.96125C3 4.61625 3.11575 4.32825 3.34725 4.09725C3.57875 3.86625 3.867 3.7505 4.212 3.75H5.53875V2.0775H6.3465V3.75H11.712V2.0775H12.462V3.75H13.7888C14.1338 3.75 14.422 3.86575 14.6535 4.09725C14.885 4.32875 15.0005 4.617 15 4.962V14.5387C15 14.8837 14.8845 15.172 14.6535 15.4035C14.4225 15.635 14.134 15.7505 13.788 15.75H4.21275ZM4.21275 15H13.7895C13.9045 15 14.0103 14.952 14.1068 14.856C14.2033 14.76 14.2512 14.654 14.2507 14.538V7.962H3.75V14.5387C3.75 14.6537 3.798 14.7595 3.894 14.856C3.99 14.9525 4.09575 15.0005 4.21125 15" fill="var(--fill-0, #919191)"/>
</g>
</svg>
