<svg preserveAspectRatio="none" width="100%" height="100%" overflow="visible" style="display: block;" viewBox="0 0 17.875 17.8751" fill="none" xmlns="http://www.w3.org/2000/svg">
<g id="Group">
<path id="Vector" d="M0.5 10.6251V17.3751M0.5 16.2501H12.875C12.875 15.6533 12.6379 15.081 12.216 14.6591C11.794 14.2371 11.2217 14.0001 10.625 14.0001H7.8125M7.8125 14.0001C7.8125 13.4033 7.57545 12.831 7.15349 12.4091C6.73153 11.9871 6.15924 11.7501 5.5625 11.7501H0.5M7.8125 14.0001H5M4.91 0.500051H16.34C16.6172 0.504004 16.8815 0.617401 17.0754 0.815508C17.2693 1.01361 17.377 1.28036 17.375 1.55755V8.06755C17.377 8.34474 17.2693 8.61149 17.0754 8.80959C16.8815 9.0077 16.6172 9.1211 16.34 9.12505H4.91C4.63283 9.1211 4.36846 9.0077 4.17457 8.80959C3.98068 8.61149 3.87299 8.34474 3.875 8.06755V1.55755C3.87299 1.28036 3.98068 1.01361 4.17457 0.815508C4.36846 0.617401 4.63283 0.504004 4.91 0.500051Z" stroke="var(--stroke-0, #AAA4A4)" stroke-linecap="round" stroke-linejoin="round"/>
<path id="Vector_2" d="M5.9375 2.93755H7.0625M14.1875 6.68755H15.3125M8.9375 4.81255C8.9375 5.2601 9.11529 5.68933 9.43176 6.00579C9.74823 6.32226 10.1774 6.50005 10.625 6.50005C11.0726 6.50005 11.5018 6.32226 11.8182 6.00579C12.1347 5.68933 12.3125 5.2601 12.3125 4.81255C12.3125 4.365 12.1347 3.93578 11.8182 3.61931C11.5018 3.30284 11.0726 3.12505 10.625 3.12505C10.1774 3.12505 9.74823 3.30284 9.43176 3.61931C9.11529 3.93578 8.9375 4.365 8.9375 4.81255Z" stroke="var(--stroke-0, #AAA4A4)" stroke-linecap="round" stroke-linejoin="round"/>
</g>
</svg>
