<svg preserveAspectRatio="none" width="100%" height="100%" overflow="visible" style="display: block;" viewBox="0 0 18 18" fill="none" xmlns="http://www.w3.org/2000/svg">
<g id="icon_log">
<path id="Vector" d="M6.49875 12.2385C6.60875 12.1285 6.66375 11.9912 6.66375 11.8267C6.66375 11.6622 6.60875 11.525 6.49875 11.415C6.38875 11.305 6.25125 11.25 6.08625 11.25C5.92125 11.25 5.784 11.305 5.6745 11.415C5.565 11.525 5.51 11.6625 5.5095 11.8275C5.509 11.9925 5.564 12.1295 5.6745 12.2385C5.785 12.3475 5.9225 12.4025 6.087 12.4035C6.251 12.4035 6.38825 12.3485 6.49875 12.2385ZM6.49875 9.41175C6.60875 9.30175 6.66375 9.1645 6.66375 9C6.66375 8.8355 6.60875 8.69825 6.49875 8.58825C6.38875 8.47825 6.25125 8.42325 6.08625 8.42325C5.92125 8.42325 5.784 8.47825 5.6745 8.58825C5.565 8.69825 5.51 8.8355 5.5095 9C5.509 9.1645 5.564 9.30175 5.6745 9.41175C5.785 9.52175 5.9225 9.57675 6.087 9.57675C6.251 9.57675 6.38825 9.52175 6.49875 9.41175ZM6.49875 6.58425C6.60875 6.47425 6.66375 6.33725 6.66375 6.17325C6.66375 6.00925 6.60875 5.87175 6.49875 5.76075C6.38875 5.64975 6.25125 5.59475 6.08625 5.59575C5.92125 5.59675 5.784 5.65175 5.6745 5.76075C5.565 5.86975 5.51 6.00725 5.5095 6.17325C5.509 6.33925 5.564 6.4765 5.6745 6.585C5.785 6.6935 5.9225 6.7485 6.087 6.75C6.251 6.75 6.38825 6.69425 6.49875 6.58425ZM8.394 12.2025H12.4327V11.4525H8.394V12.2025ZM8.394 9.375H12.4327V8.625H8.394V9.375ZM8.394 6.5475H12.4327V5.7975H8.394V6.5475ZM4.212 15C3.8665 15 3.57825 14.8845 3.34725 14.6535C3.11625 14.4225 3.0005 14.134 3 13.788V4.212C3 3.8665 3.11575 3.57825 3.34725 3.34725C3.57875 3.11625 3.867 3.0005 4.212 3H13.7887C14.1337 3 14.422 3.11575 14.6535 3.34725C14.885 3.57875 15.0005 3.867 15 4.212V13.7887C15 14.1337 14.8845 14.422 14.6535 14.6535C14.4225 14.885 14.134 15.0005 13.788 15H4.212ZM4.212 14.25H13.7887C13.9037 14.25 14.0095 14.202 14.106 14.106C14.2025 14.01 14.2505 13.904 14.25 13.788V4.212C14.25 4.0965 14.202 3.9905 14.106 3.894C14.01 3.7975 13.904 3.7495 13.788 3.75H4.212C4.0965 3.75 3.9905 3.798 3.894 3.894C3.7975 3.99 3.7495 4.096 3.75 4.212V13.7887C3.75 13.9037 3.798 14.0095 3.894 14.106C3.99 14.2025 4.0965 14.2505 4.212 14.25Z" fill="var(--fill-0, #AAA4A4)"/>
</g>
</svg>
