<svg preserveAspectRatio="none" width="100%" height="100%" overflow="visible" style="display: block;" viewBox="0 0 15.375 15.3751" fill="none" xmlns="http://www.w3.org/2000/svg">
<g id="Group">
<path id="Vector" d="M0.75 9.07508V14.6251M0.75 13.7001H10.925C10.925 13.2094 10.7301 12.7389 10.3832 12.3919C10.0362 12.045 9.56565 11.8501 9.075 11.8501H6.7625M6.7625 11.8501C6.7625 11.3594 6.56759 10.8889 6.22065 10.5419C5.87371 10.195 5.40315 10.0001 4.9125 10.0001H0.75M6.7625 11.8501H4.45M4.376 0.750076H13.774C14.0019 0.753326 14.2193 0.846564 14.3787 1.00945C14.5381 1.17234 14.6267 1.39166 14.625 1.61958V6.97224C14.6267 7.20016 14.5381 7.41948 14.3787 7.58237C14.2193 7.74526 14.0019 7.8385 13.774 7.84175H4.376C4.1481 7.8385 3.93074 7.74526 3.77131 7.58237C3.61189 7.41948 3.52335 7.20016 3.525 6.97224V1.61958C3.52335 1.39166 3.61189 1.17234 3.77131 1.00945C3.93074 0.846564 4.1481 0.753326 4.376 0.750076Z" stroke="var(--stroke-0, white)" stroke-width="1.5" stroke-linecap="round" stroke-linejoin="round"/>
<path id="Vector_2" d="M5.22087 2.75431H6.14587M12.0042 5.83764H12.9292M7.68753 4.29598C7.68753 4.66396 7.83372 5.01688 8.09392 5.27709C8.35413 5.53729 8.70705 5.68348 9.07503 5.68348C9.44302 5.68348 9.79594 5.53729 10.0561 5.27709C10.3164 5.01688 10.4625 4.66396 10.4625 4.29598C10.4625 3.92799 10.3164 3.57507 10.0561 3.31487C9.79594 3.05466 9.44302 2.90848 9.07503 2.90848C8.70705 2.90848 8.35413 3.05466 8.09392 3.31487C7.83372 3.57507 7.68753 3.92799 7.68753 4.29598Z" stroke="var(--stroke-0, white)" stroke-width="1.5" stroke-linecap="round" stroke-linejoin="round"/>
</g>
</svg>
