<svg preserveAspectRatio="none" width="100%" height="100%" overflow="visible" style="display: block;" viewBox="0 0 14.5 14.5" fill="none" xmlns="http://www.w3.org/2000/svg">
<g id="Group">
<path id="Vector" d="M0.5 14H2M2 14H12.5M2 14V5.246M14 14H12.5M12.5 14V5.246M12.5 5.246C12.2577 5.38594 11.9811 5.45532 11.7015 5.44631C11.4218 5.43729 11.1503 5.35025 10.9175 5.195L9.5 4.25L8.0825 5.195C7.836 5.35946 7.54632 5.44722 7.25 5.44722C6.95368 5.44722 6.664 5.35946 6.4175 5.195L5 4.25L3.5825 5.195C3.34973 5.35025 3.07817 5.43729 2.79853 5.44631C2.51888 5.45532 2.24229 5.38594 2 5.246C1.97196 5.22989 1.94444 5.21289 1.9175 5.195L1.5125 4.925C1.22619 4.73403 1.01426 4.45041 0.912254 4.12172C0.810246 3.79303 0.824368 3.43926 0.95225 3.11975L1.62275 1.44275C1.73412 1.16443 1.92632 0.925861 2.17457 0.757821C2.42282 0.589782 2.71573 0.49998 3.0155 0.5H11.4845C11.7843 0.49998 12.0772 0.589782 12.3254 0.757821C12.5737 0.925861 12.7659 1.16443 12.8773 1.44275L13.5477 3.11975C13.6756 3.43926 13.6898 3.79303 13.5877 4.12172C13.4857 4.45041 13.2738 4.73403 12.9875 4.925L12.5825 5.195C12.5556 5.21289 12.528 5.22989 12.5 5.246Z" stroke="var(--stroke-0, #AAA4A4)" stroke-linecap="round" stroke-linejoin="round"/>
<path id="Vector_2" d="M8.75 14V10.25C8.75 9.85218 8.59196 9.47065 8.31066 9.18934C8.02936 8.90804 7.64783 8.75 7.25 8.75C6.85218 8.75 6.47065 8.90804 6.18934 9.18934C5.90804 9.47065 5.75 9.85218 5.75 10.25V14" stroke="var(--stroke-0, #AAA4A4)"/>
</g>
</svg>
