<svg preserveAspectRatio="none" width="100%" height="100%" overflow="visible" style="display: block;" viewBox="0 0 462 194" fill="none" xmlns="http://www.w3.org/2000/svg">
<path id="Vector" fill-rule="evenodd" clip-rule="evenodd" d="M237.159 0.197086C264.776 1.16912 287.309 10.3904 314.695 12.2377C352.581 14.7934 401.89 0.896587 428.404 13.0978C454.457 25.0874 417.278 45.9419 423.514 62.3159C428.659 75.8236 458.416 85.7539 461.27 99.3928C464.238 113.581 458.36 128.914 439.894 140.609C421.537 152.234 387.104 155.937 359.987 163.536C334.296 170.736 311.551 179.617 283.21 184.518C252.291 189.865 219.581 195.795 186.783 193.488C153.799 191.168 124.449 182.129 100.889 171.692C78.4683 161.76 72.1285 147.184 55.377 135.276C38.0952 122.99 1.3133 114.441 0.0346225 99.9958C-1.26628 85.2998 34.438 75.2971 48.8943 62.0424C61.4723 50.51 61.4379 36.4664 80.038 26.6425C98.7753 16.7461 126.59 11.1764 153.907 6.57846C180.512 2.10053 208.771 -0.802079 237.159 0.197086Z" fill="var(--fill-0, #FEF2E4)"/>
</svg>
