<svg preserveAspectRatio="none" width="100%" height="100%" overflow="visible" style="display: block;" viewBox="0 0 458 194" fill="none" xmlns="http://www.w3.org/2000/svg">
<path id="Vector" fill-rule="evenodd" clip-rule="evenodd" d="M235.106 0.197086C262.483 1.16912 284.821 10.3904 311.97 12.2377C349.528 14.7934 398.411 0.896587 424.694 13.0978C450.522 25.0874 413.665 45.9419 419.848 62.3159C424.948 75.8236 454.447 85.7539 457.276 99.3928C460.219 113.581 454.391 128.914 436.085 140.609C417.887 152.234 383.752 155.937 356.871 163.536C331.401 170.736 308.854 179.617 280.758 184.518C250.106 189.865 217.68 195.795 185.166 193.488C152.468 191.168 123.372 182.129 100.016 171.692C77.7889 161.76 71.504 147.184 54.8976 135.276C37.7654 122.99 1.30193 114.441 0.0343227 99.9958C-1.25531 85.2998 34.1399 75.2971 48.471 62.0424C60.94 50.51 60.906 36.4664 79.345 26.6425C97.9201 16.7461 125.494 11.1764 152.575 6.57846C178.949 2.10053 206.964 -0.802079 235.106 0.197086Z" fill="var(--fill-0, #E4F9F0)"/>
</svg>
