<svg preserveAspectRatio="none" width="100%" height="100%" overflow="visible" style="display: block;" viewBox="0 0 457 194" fill="none" xmlns="http://www.w3.org/2000/svg">
<path id="Vector" fill-rule="evenodd" clip-rule="evenodd" d="M234.592 0.197086C261.91 1.16912 284.199 10.3904 311.289 12.2377C348.765 14.7934 397.541 0.896587 423.767 13.0978C449.539 25.0874 412.762 45.9419 418.931 62.3159C424.02 75.8236 453.455 85.7539 456.278 99.3928C459.214 113.581 453.399 128.914 435.133 140.609C416.975 152.234 382.914 155.937 356.091 163.536C330.678 170.736 308.179 179.617 280.145 184.518C249.56 189.865 217.205 195.795 184.761 193.488C152.135 191.168 123.102 182.129 99.7973 171.692C77.619 161.76 71.3479 147.184 54.7777 135.276C37.6829 122.99 1.29908 114.441 0.0342478 99.9958C-1.25257 85.2998 34.0653 75.2971 48.3652 62.0424C60.807 50.51 60.773 36.4664 79.1717 26.6425C97.7063 16.7461 125.22 11.1764 152.242 6.57846C178.559 2.10053 206.512 -0.802079 234.592 0.197086Z" fill="var(--fill-0, #F2EDFC)"/>
</svg>
